<svg width="24" height="24" viewBox="0 0 24 24" fill="none" xmlns="http://www.w3.org/2000/svg">
<path d="M8.03341 7.33342C8.03341 5.14168 9.80835 3.36675 12.0001 3.36675C14.1918 3.36675 15.9667 5.14168 15.9667 7.33342C15.9667 9.52515 14.1918 11.3001 12.0001 11.3001C9.80835 11.3001 8.03341 9.52515 8.03341 7.33342ZM3.36675 17.8334C3.36675 17.3147 3.62105 16.8085 4.16179 16.3094C4.7073 15.806 5.49634 15.3584 6.4256 14.9861C8.28524 14.2412 10.5301 13.8667 12.0001 13.8667C13.4701 13.8667 15.7149 14.2412 17.5746 14.9861C18.5038 15.3584 19.2929 15.806 19.8384 16.3094C20.3791 16.8085 20.6334 17.3147 20.6334 17.8334V20.6334H3.36675V17.8334Z" stroke="#109CF1" stroke-width="1.4"/>
</svg>
